<svg xmlns="http://www.w3.org/2000/svg" viewBox="0 0 1000 1000"><rect width="1000" height="1000" rx="210" fill="#221F1C"/><path d="M554.16 516.72V640.6H489.56V525.46Q489.56 504.94000000000005 478.73 493.73Q467.9 482.52 448.9 482.52Q429.9 482.52 419.07 493.73Q408.24 504.94000000000005 408.24 525.46V640.6H343.64V525.46Q343.64 504.94000000000005 332.80999999999995 493.73Q321.97999999999996 482.52 302.97999999999996 482.52Q283.97999999999996 482.52 273.15 493.73Q262.32 504.94000000000005 262.32 525.46V640.6H197.33999999999997V428.56000000000006H262.32V455.16Q272.2 441.86 288.15999999999997 434.07000000000005Q304.12 426.28000000000003 324.26 426.28000000000003Q348.2 426.28000000000003 367.01 436.54Q385.81999999999994 446.8 396.46 465.8Q407.47999999999996 448.32000000000005 426.47999999999996 437.30000000000007Q445.47999999999996 426.28000000000003 467.9 426.28000000000003Q507.41999999999996 426.28000000000003 530.79 450.22Q554.16 474.16 554.16 516.72Z M802.6600000000001 516.72V640.6H738.0600000000001V525.46Q738.0600000000001 504.18000000000006 727.04 492.40000000000003Q716.02 480.62 697.4000000000001 480.62Q678.7800000000001 480.62 667.76 492.40000000000003Q656.74 504.18000000000006 656.74 525.46V640.6H591.76V359.40000000000003H656.74V457.06000000000006Q666.62 443.0 683.72 434.64Q700.82 426.28000000000003 722.1 426.28000000000003Q758.58 426.28000000000003 780.6200000000001 450.41Q802.6600000000001 474.54 802.6600000000001 516.72Z" fill="#F4EFE6"/><path d="M189.3,704.6 C375.7,684.6 599.4,672.6 810.7,692.6 C624.3,712.6 375.7,724.6 189.3,704.6 z" fill="#BD6A4A"/></svg>