<svg xmlns="http://www.w3.org/2000/svg" viewBox="-3.6 -186.6 1296.0 293.6" role="img" aria-label="mh painting">
  <path d="M200.20000000000002 -65.2V0.0H166.20000000000002V-60.6Q166.20000000000002 -71.4 160.5 -77.30000000000001Q154.8 -83.2 144.8 -83.2Q134.8 -83.2 129.10000000000002 -77.30000000000001Q123.4 -71.4 123.4 -60.6V0.0H89.4V-60.6Q89.4 -71.4 83.7 -77.30000000000001Q78.0 -83.2 68.0 -83.2Q58.0 -83.2 52.3 -77.30000000000001Q46.6 -71.4 46.6 -60.6V0.0H12.4V-111.60000000000001H46.6V-97.60000000000001Q51.800000000000004 -104.60000000000001 60.2 -108.70000000000002Q68.60000000000001 -112.80000000000001 79.2 -112.80000000000001Q91.80000000000001 -112.80000000000001 101.70000000000002 -107.4Q111.60000000000001 -102.0 117.2 -92.0Q123.0 -101.2 133.0 -107.0Q143.0 -112.80000000000001 154.8 -112.80000000000001Q175.60000000000002 -112.80000000000001 187.90000000000003 -100.20000000000002Q200.20000000000002 -87.60000000000001 200.20000000000002 -65.2Z M332.20000000000005 -65.2V0.0H298.20000000000005V-60.6Q298.20000000000005 -71.8 292.40000000000003 -78.0Q286.6 -84.2 276.8 -84.2Q267.0 -84.2 261.2 -78.0Q255.4 -71.8 255.4 -60.6V0.0H221.20000000000002V-148.0H255.4V-96.60000000000001Q260.6 -104.0 269.6 -108.4Q278.6 -112.80000000000001 289.8 -112.80000000000001Q309.0 -112.80000000000001 320.6 -100.10000000000001Q332.20000000000005 -87.4 332.20000000000005 -65.2Z M461.0 -113.2Q474.8 -113.2 486.0 -106.2Q497.2 -99.2 503.70000000000005 -86.2Q510.20000000000005 -73.2 510.20000000000005 -56.0Q510.20000000000005 -38.800000000000004 503.70000000000005 -25.700000000000003Q497.2 -12.600000000000001 486.0 -5.500000000000001Q474.8 1.6 461.0 1.6Q449.4 1.6 440.5 -3.2Q431.6 -8.0 426.6 -15.600000000000001V53.2H392.4V-111.60000000000001H426.6V-95.80000000000001Q431.6 -103.60000000000001 440.4 -108.4Q449.2 -113.2 461.0 -113.2ZM450.8 -83.4Q440.6 -83.4 433.5 -76.0Q426.4 -68.60000000000001 426.4 -55.800000000000004Q426.4 -43.0 433.5 -35.6Q440.6 -28.200000000000003 450.8 -28.200000000000003Q461.0 -28.200000000000003 468.2 -35.7Q475.4 -43.2 475.4 -56.0Q475.4 -68.8 468.29999999999995 -76.1Q461.2 -83.4 450.8 -83.4Z M567.5999999999999 -113.2Q579.4 -113.2 588.3 -108.4Q597.1999999999999 -103.60000000000001 602.0 -95.80000000000001V-111.60000000000001H636.1999999999999V0.0H602.0V-15.8Q597.0 -8.0 588.0999999999999 -3.2Q579.1999999999999 1.6 567.4 1.6Q553.8 1.6 542.5999999999999 -5.500000000000001Q531.4 -12.600000000000001 524.9 -25.700000000000003Q518.4 -38.800000000000004 518.4 -56.0Q518.4 -73.2 524.9 -86.2Q531.4 -99.2 542.5999999999999 -106.2Q553.8 -113.2 567.5999999999999 -113.2ZM577.5999999999999 -83.4Q567.4 -83.4 560.3 -76.1Q553.1999999999999 -68.8 553.1999999999999 -56.0Q553.1999999999999 -43.2 560.3 -35.7Q567.4 -28.200000000000003 577.5999999999999 -28.200000000000003Q587.8 -28.200000000000003 594.9 -35.6Q602.0 -43.0 602.0 -55.800000000000004Q602.0 -68.60000000000001 594.9 -76.0Q587.8 -83.4 577.5999999999999 -83.4Z M694.8 -111.60000000000001V0.0H660.5999999999999V-111.60000000000001Z M830.1999999999999 -65.2V0.0H796.1999999999999V-60.6Q796.1999999999999 -71.8 790.3999999999999 -78.0Q784.5999999999999 -84.2 774.8 -84.2Q765.0 -84.2 759.2 -78.0Q753.4 -71.8 753.4 -60.6V0.0H719.1999999999999V-111.60000000000001H753.4V-96.80000000000001Q758.5999999999999 -104.2 767.3999999999999 -108.5Q776.1999999999999 -112.80000000000001 787.1999999999999 -112.80000000000001Q806.8 -112.80000000000001 818.5 -100.10000000000001Q830.1999999999999 -87.4 830.1999999999999 -65.2Z M913.1999999999999 -29.0V0.0H895.8Q877.1999999999999 0.0 866.8 -9.1Q856.3999999999999 -18.2 856.3999999999999 -38.800000000000004V-83.2H842.8V-111.60000000000001H856.3999999999999V-138.8H890.5999999999999V-111.60000000000001H912.9999999999999V-83.2H890.5999999999999V-38.400000000000006Q890.5999999999999 -33.4 892.9999999999999 -31.2Q895.3999999999999 -29.0 900.9999999999999 -29.0Z M926.0 -141.6Q926.0 -149.6 931.7 -154.9Q937.4 -160.20000000000002 946.4 -160.20000000000002Q955.1999999999999 -160.20000000000002 960.8999999999999 -154.9Q966.5999999999999 -149.6 966.5999999999999 -141.6Q966.5999999999999 -133.8 960.8999999999999 -128.5Q955.1999999999999 -123.2 946.4 -123.2Q937.4 -123.2 931.7 -128.5Q926.0 -133.8 926.0 -141.6ZM963.4 -111.60000000000001V0.0H929.1999999999999V-111.60000000000001Z M1096.2 -65.2V0.0H1062.2V-60.6Q1062.2 -71.8 1056.4 -78.0Q1050.6 -84.2 1040.8 -84.2Q1031.0 -84.2 1025.2 -78.0Q1019.4 -71.8 1019.4 -60.6V0.0H985.1999999999999V-111.60000000000001H1019.4V-96.80000000000001Q1024.6 -104.2 1033.4 -108.5Q1042.2 -112.80000000000001 1053.2 -112.80000000000001Q1072.8 -112.80000000000001 1084.5 -100.10000000000001Q1096.2 -87.4 1096.2 -65.2Z M1193.8 -95.80000000000001V-111.60000000000001H1228.0V-0.2Q1228.0 15.200000000000001 1221.9 27.700000000000003Q1215.8 40.2 1203.3 47.6Q1190.8 55.0 1172.1999999999998 55.0Q1147.3999999999999 55.0 1132.0 43.3Q1116.6 31.6 1114.3999999999999 11.600000000000001H1148.1999999999998Q1149.8 18.0 1155.8 21.700000000000003Q1161.8 25.400000000000002 1170.6 25.400000000000002Q1181.1999999999998 25.400000000000002 1187.5 19.3Q1193.8 13.200000000000001 1193.8 -0.2V-16.0Q1188.8 -8.200000000000001 1180.0 -3.3000000000000007Q1171.1999999999998 1.6 1159.3999999999999 1.6Q1145.6 1.6 1134.3999999999999 -5.500000000000001Q1123.1999999999998 -12.600000000000001 1116.6999999999998 -25.700000000000003Q1110.1999999999998 -38.800000000000004 1110.1999999999998 -56.0Q1110.1999999999998 -73.2 1116.6999999999998 -86.2Q1123.1999999999998 -99.2 1134.3999999999999 -106.2Q1145.6 -113.2 1159.3999999999999 -113.2Q1171.1999999999998 -113.2 1180.1 -108.4Q1189.0 -103.60000000000001 1193.8 -95.80000000000001ZM1169.3999999999999 -83.4Q1159.1999999999998 -83.4 1152.1 -76.1Q1145.0 -68.8 1145.0 -56.0Q1145.0 -43.2 1152.1 -35.7Q1159.1999999999998 -28.200000000000003 1169.3999999999999 -28.200000000000003Q1179.6 -28.200000000000003 1186.6999999999998 -35.6Q1193.8 -43.0 1193.8 -55.800000000000004Q1193.8 -68.60000000000001 1186.6999999999998 -76.0Q1179.6 -83.4 1169.3999999999999 -83.4Z" fill="#221F1C"/>
  <path d="M677.6999999999999,-121.60000000000001 h0.0 a5.0,5.0 0 0 1 5.0,5.0 v2.0 a5.0,5.0 0 0 1 -5.0,5.0 h-0.0 a5.0,5.0 0 0 1 -5.0,-5.0 v-2.0 a5.0,5.0 0 0 1 5.0,-5.0 z" fill="#BD6A4A"/>
  <g transform="rotate(-11 677.7 -120.6)">
    <path d="M652.1999999999999,-153.60000000000002 h51.0 a16.5,16.5 0 0 1 16.5,16.5 v0.0 a16.5,16.5 0 0 1 -16.5,16.5 h-51.0 a16.5,16.5 0 0 1 -16.5,-16.5 v-0.0 a16.5,16.5 0 0 1 16.5,-16.5 z" fill="#BD6A4A"/>
    <path d="M723.1999999999999,-143.60000000000002 h0.0 a6.5,6.5 0 0 1 6.5,6.5 v0.0 a6.5,6.5 0 0 1 -6.5,6.5 h-0.0 a6.5,6.5 0 0 1 -6.5,-6.5 v-0.0 a6.5,6.5 0 0 1 6.5,-6.5 z" fill="#221F1C"/>
  </g>
  <path d="M1248.3999999999999,0 a14,14 0 1 0 28,0 a14,14 0 1 0 -28,0 z" fill="#BD6A4A"/>
  <path d="M2.4,74.0 C387.0,62.0 848.5,46.0 1284.4,58.0 C899.8,70.0 387.0,86.0 2.4,74.0 z" fill="#221F1C"/>
</svg>